# xmcd CD database file
#
# Track frame offsets:
#	150
#	17050
#	30465
#	43610
#	59290
#	76067
#	88642
#	109405
#	123575
#	137700
#	149535
#	161567
#	177845
#	203615
#	218470
#
# Disc length: 3060 seconds
#
# Revision: 0
# Processed by: cddbd v1.5PL3 Copyright (c) Steve Scherf et al.
# Submitted via: CDex 1.51
#
DISCID=c70bf20f
DTITLE=Linwood Slim - Soul Feet
DYEAR=1996
DGENRE=Blues
TTITLE0=I'm to Blame
TTITLE1=Hoy, Hoy, Hoy
TTITLE2=I Refuse
TTITLE3=Do Nothing 'til You Hear from Me
TTITLE4=Messin' with My Bread
TTITLE5=Reach for Your Telephone
TTITLE6=Things Gon' Change
TTITLE7=Doo's Groove
TTITLE8=Soul Feet
TTITLE9=Nothing takes the Place of You
TTITLE10=I've been Around
TTITLE11=Bad Case of Love
TTITLE12=Too Poor
TTITLE13=Wipe Your Tears
TTITLE14=Look the Whole World Over
EXTD=YEAR: 1996
EXTT0=
EXTT1=
EXTT2=
EXTT3=
EXTT4=
EXTT5=
EXTT6=
EXTT7=
EXTT8=
EXTT9=
EXTT10=
EXTT11=
EXTT12=
EXTT13=
EXTT14=
PLAYORDER=
